<svg width="26" height="26" viewBox="0 0 26 26" fill="none" xmlns="http://www.w3.org/2000/svg">
<path d="M0 13C0 5.8203 5.8203 0 13 0C20.1797 0 26 5.8203 26 13C26 20.1797 20.1797 26 13 26C5.8203 26 0 20.1797 0 13Z" fill="#0085FF"/>
<path d="M19.3002 15.1001V17.9001C19.3002 18.2714 19.1527 18.6275 18.8901 18.89C18.6276 19.1526 18.2715 19.3001 17.9002 19.3001H8.1002C7.72889 19.3001 7.3728 19.1526 7.11025 18.89C6.84769 18.6275 6.7002 18.2714 6.7002 17.9001V15.1001" stroke="white" stroke-linecap="round" stroke-linejoin="round"/>
<path d="M9.5 11.6001L13 15.1001L16.5 11.6001" stroke="white" stroke-linecap="round" stroke-linejoin="round"/>
<path d="M13 15.0999V6.69995" stroke="white" stroke-linecap="round" stroke-linejoin="round"/>
</svg>
